<?xml version="1.0" encoding="UTF-8"?>
<svg xmlns="http://www.w3.org/2000/svg" width="1200" height="1200" viewBox="0 0 1200 1200">
  <!-- Black background -->
  <rect width="100%" height="100%" fill="#000000"/>

  <defs>
    <!-- Violet -> Indigo gradient -->
    <linearGradient id="grad-violet-indigo" x1="0%" y1="0%" x2="100%" y2="100%">
      <stop offset="0%" stop-color="#7C3AED"/>   <!-- violet -->
      <stop offset="65%" stop-color="#5B21B6"/>  <!-- deep violet -->
      <stop offset="100%" stop-color="#1E3A8A"/> <!-- indigo -->
    </linearGradient>

    <!-- Soft glow for subtle contrast on black (optional, keeps it crisp) -->
    <filter id="softGlow" x="-50%" y="-50%" width="200%" height="200%">
      <feGaussianBlur stdDeviation="8" result="blur"/>
      <feMerge>
        <feMergeNode in="blur"/>
        <feMergeNode in="SourceGraphic"/>
      </feMerge>
    </filter>
  </defs>

  <!-- Icon group (book + crescent + star) -->
  <g transform="translate(600,330)" filter="none">
    <!-- Book (simple stylized open-book path) -->
    <path d="M-360,170 C-260,40 -140,40 -10,170 
             C-120,120 -240,130 -360,170 Z
             M10,170 C140,40 260,40 360,170 
             C240,120 120,130 10,170 Z"
          fill="url(#grad-violet-indigo)"/>

    <!-- Crescent (drawn with two circles; the smaller circle is black to cut out shape) -->
    <circle cx="0" cy="-70" r="140" fill="url(#grad-violet-indigo)"/>
    <circle cx="40" cy="-60" r="100" fill="#000000"/>

    <!-- Four-point star -->
    <polygon points="95,-160 105,-145 120,-140 105,-135 95,-120 90,-135 75,-140 90,-145"
             fill="url(#grad-violet-indigo)"/>
  </g>

  <!-- Logotype -->
  <text x="50%" y="900" text-anchor="middle"
        font-family="Inter, 'Helvetica Neue', Arial, sans-serif"
        font-weight="700" font-size="220"
        fill="url(#grad-violet-indigo)" letter-spacing="-2">
    ilmora
  </text>
</svg>
